:FULLY-SPECIFIED
:FORCE-ALL-JOINTS-BE-3DOF
:DEGREES
442
root 1.86505 15.5224 -8.99869 3.8872 5.94162 -13.1597
lfemur -52.9017 24.5819 -8.73852
ltibia 60.9448 0 0
lfoot -17.5826 1.32537 0
ltoes 0.595956 0 0
rfemur -10.8955 -13.9271 14.8998
rtibia 41.7905 0 0
rfoot -6.17029 -16.3897 0
rtoes -36.7562 0 0
lowerback 4.2988 1.97796 5.53262
upperback 0.780557 2.88149 1.12859
thorax -1.45297 1.41101 -2.10946
lowerneck -6.77474 -0.248439 5.28362
upperneck 0.61037 -0.747411 -0.224653
head 1.31112 -0.347972 -0.964703
lclavicle -3.94244e-014 5.45469e-015 0
lhumerus -42.1306 -22.2866 99.0445
lradius 52.4262 0 0
lwrist 6.36575 0 0
lhand -29.4352 -7.73994 0
lfingers 7.12502 0 0
lthumb -2.76341 22.4008 0
rclavicle -3.94244e-014 5.45469e-015 0
rhumerus -48.8803 -1.64459 -86.137
rradius 64.6538 0 0
rwrist 9.3728 0 0
rhand -27.3665 -22.6585 0
rfingers 7.12502 0 0
rthumb -0.773163 -772.667 0
443
root 1.81009 15.51 -8.95282 4.03839 7.78863 -13.4995
lfemur -53.6153 24.9245 -8.75678
ltibia 61.3858 0 0
lfoot -17.6771 0.855228 0
ltoes 0.661493 0 0
rfemur -9.91663 -13.4207 14.5687
rtibia 40.4342 0 0
rfoot -6.47101 -16.7882 0
rtoes -38.8566 0 0
lowerback 4.23366 1.8658 5.71074
upperback 0.747877 2.74341 1.24887
thorax -1.45268 1.34177 -2.07438
lowerneck -6.81128 -0.411798 5.14998
upperneck 0.523287 -0.955789 -0.18149
head 1.28273 -0.453758 -0.935601
lclavicle -3.99099e-014 4.87504e-015 0
lhumerus -42.0438 -22.5029 99.2681
lradius 52.5298 0 0
lwrist 6.0065 0 0
lhand -29.519 -7.96477 0
lfingers 7.12502 0 0
lthumb -2.84469 22.17 0
rclavicle -3.99099e-014 4.87504e-015 0
rhumerus -48.9409 -1.86198 -86.0527
rradius 64.6674 0 0
rwrist 9.489 0 0
rhand -27.45 -22.8485 0
rfingers 7.12502 0 0
rthumb -0.853874 -772.855 0
444
root 1.76019 15.499 -8.90639 4.1847 9.61296 -13.8124
lfemur -54.2734 25.215 -8.78698
ltibia 61.7909 0 0
lfoot -17.7717 0.40247 0
ltoes 0.739182 0 0
rfemur -9.02154 -12.9241 14.2494
rtibia 39.1772 0 0
rfoot -6.74027 -17.1486 0
rtoes -40.8401 0 0
lowerback 4.17159 1.75687 5.87457
upperback 0.71603 2.60885 1.36291
thorax -1.45323 1.27433 -2.03806
lowerneck -6.84769 -0.574756 5.01722
upperneck 0.44556 -1.16377 -0.138779
head 1.25793 -0.559195 -0.907054
lclavicle -4.03518e-014 4.3134e-015 0
lhumerus -41.9673 -22.717 99.494
lradius 52.6311 0 0
lwrist 5.66146 0 0
lhand -29.5684 -8.17212 0
lfingers 7.12502 0 0
lthumb -2.89284 21.9545 0
rclavicle -4.03518e-014 4.3134e-015 0
rhumerus -48.9971 -2.04742 -85.9812
rradius 64.6911 0 0
rwrist 9.61428 0 0
rhand -27.5172 -23.0277 0
rfingers 7.12502 0 0
rthumb -0.918862 -773.033 0
445
root 1.71565 15.4894 -8.85926 4.32545 11.4105 -14.0964
lfemur -54.8718 25.4496 -8.82979
ltibia 62.1567 0 0
lfoot -17.8664 -0.030864 0
ltoes 0.829347 0 0
rfemur -8.21674 -12.4388 13.9428
rtibia 38.028 0 0
rfoot -6.97524 -17.4683 0
rtoes -42.6971 0 0
lowerback 4.11286 1.6516 6.02299
upperback 0.685079 2.4783 1.47013
thorax -1.45472 1.20895 -2.00052
lowerneck -6.88386 -0.736972 4.88571
upperneck 0.377964 -1.37094 -0.0966901
head 1.23698 -0.664058 -0.879176
lclavicle -4.07471e-014 3.77249e-015 0
lhumerus -41.9017 -22.9285 99.7221
lradius 52.7297 0 0
lwrist 5.3318 0 0
lhand -29.5813 -8.36078 0
lfingers 7.12502 0 0
lthumb -2.90587 21.7554 0
rclavicle -4.07471e-014 3.77249e-015 0
rhumerus -49.0486 -2.19886 -85.9233
rradius 64.7256 0 0
rwrist 9.74904 0 0
rhand -27.5674 -23.195 0
rfingers 7.12502 0 0
rthumb -0.967411 -773.198 0
446
root 1.67678 15.4815 -8.81128 4.45993 13.1771 -14.3494
lfemur -55.4058 25.6244 -8.88589
ltibia 62.4799 0 0
lfoot -17.9613 -0.442741 0
ltoes 0.932314 0 0
rfemur -7.50876 -11.9666 13.6498
rtibia 36.9952 0 0
rfoot -7.17311 -17.7447 0
rtoes -44.418 0 0
lowerback 4.05776 1.5504 6.15485
upperback 0.655086 2.35226 1.5699
thorax -1.45723 1.14589 -1.96179
lowerneck -6.9197 -0.898107 4.7558
upperneck 0.321276 -1.57687 -0.0553927
head 1.22017 -0.768123 -0.852086
lclavicle -4.10926e-014 3.25502e-015 0
lhumerus -41.848 -23.1368 99.9522
lradius 52.8251 0 0
lwrist 5.01868 0 0
lhand -29.5557 -8.52955 0
lfingers 7.12502 0 0
lthumb -2.88177 21.574 0
rclavicle -4.10926e-014 3.25502e-015 0
rhumerus -49.0955 -2.31421 -85.8798
rradius 64.7714 0 0
rwrist 9.89371 0 0
rhand -27.5998 -23.3496 0
rfingers 7.12502 0 0
rthumb -0.998806 -773.35 0
447
root 1.64388 15.4752 -8.76234 4.58748 14.9087 -14.5693
lfemur -55.8712 25.7356 -8.95594
ltibia 62.757 0 0
lfoot -18.0562 -0.831128 0
ltoes 1.04841 0 0
rfemur -6.90416 -11.5092 13.3713
rtibia 36.0872 0 0
rfoot -7.33104 -17.9752 0
rtoes -45.993 0 0
lowerback 4.00658 1.4537 6.26901
upperback 0.626113 2.23122 1.66164
thorax -1.46083 1.08538 -1.92189
lowerneck -6.95508 -1.05782 4.62784
upperneck 0.276274 -1.78113 -0.0150573
head 1.20778 -0.871165 -0.825898
lclavicle -4.13852e-014 2.76372e-015 0
lhumerus -41.8069 -23.3414 100.184
lradius 52.9168 0 0
lwrist 4.72324 0 0
lhand -29.4894 -8.67722 0
lfingers 7.12502 0 0
lthumb -2.81856 21.4111 0
rclavicle -4.13852e-014 2.76372e-015 0
rhumerus -49.1376 -2.39142 -85.8514
rradius 64.8292 0 0
rwrist 10.0487 0 0
rhand -27.6137 -23.4903 0
rfingers 7.12502 0 0
rthumb -1.01233 -773.488 0
448
root 1.61726 15.4707 -8.7123 4.70739 16.6011 -14.754
lfemur -56.2633 25.7794 -9.0406
ltibia 62.9846 0 0
lfoot -18.1512 -1.19399 0
ltoes 1.17795 0 0
rfemur -6.40948 -11.0681 13.1083
rtibia 35.3126 0 0
rfoot -7.44621 -18.1569 0
rtoes -47.4125 0 0
lowerback 3.95959 1.36191 6.36435
upperback 0.598222 2.11568 1.74474
thorax -1.46563 1.02768 -1.88085
lowerneck -6.98992 -1.21577 4.50221
upperneck 0.243733 -1.9833 0.0241458
head 1.2001 -0.972961 -0.800729
lclavicle -4.16216e-014 2.30132e-015 0
lhumerus -41.7791 -23.5418 100.418
lradius 53.0044 0 0
lwrist 4.44664 0 0
lhand -29.3804 -8.80259 0
lfingers 7.12502 0 0
lthumb -2.71423 21.268 0
rclavicle -4.16216e-014 2.30132e-015 0
rhumerus -49.1747 -2.42841 -85.839
rradius 64.8996 0 0
rwrist 10.2144 0 0
rhand -27.6084 -23.6163 0
rfingers 7.12502 0 0
rthumb -1.00726 -773.611 0
449
root 1.59721 15.468 -8.66102 4.81898 18.2502 -14.9015
lfemur -56.5779 25.7518 -9.14054
ltibia 63.1594 0 0
lfoot -18.2462 -1.52929 0
ltoes 1.32127 0 0
rfemur -6.03125 -10.6451 12.8616
rtibia 34.68 0 0
rfoot -7.51579 -18.2874 0
rtoes -48.6669 0 0
lowerback 3.91709 1.27547 6.43973
upperback 0.571475 2.00614 1.81861
thorax -1.47171 0.97304 -1.8387
lowerneck -7.02411 -1.37162 4.37925
upperneck 0.224431 -2.18296 0.0620464
head 1.1974 -1.07328 -0.776695
lclavicle -4.17988e-014 1.87054e-015 0
lhumerus -41.7657 -23.7374 100.653
lradius 53.0874 0 0
lwrist 4.19005 0 0
lhand -29.2267 -8.90445 0
lfingers 7.12502 0 0
lthumb -2.56677 21.1458 0
rclavicle -4.17988e-014 1.87054e-015 0
rhumerus -49.2069 -2.42312 -85.8433
rradius 64.9833 0 0
rwrist 10.3913 0 0
rhand -27.583 -23.7266 0
rfingers 7.12502 0 0
rthumb -0.982897 -773.717 0
450
root 1.58405 15.4672 -8.60836 4.92157 19.8519 -15.0096
lfemur -56.8105 25.6491 -9.25644
ltibia 63.2779 0 0
lfoot -18.3413 -1.83501 0
ltoes 1.47868 0 0
rfemur -5.77603 -10.2418 12.6322
rtibia 34.1979 0 0
rfoot -7.53694 -18.3638 0
rtoes -49.7465 0 0
lowerback 3.87934 1.19478 6.49401
upperback 0.545934 1.90308 1.88263
thorax -1.47915 0.92171 -1.79546
lowerneck -7.05754 -1.52502 4.25932
upperneck 0.219144 -2.37967 0.0984742
head 1.19995 -1.17191 -0.753912
lclavicle -4.19137e-014 1.4741e-015 0
lhumerus -41.7673 -23.9278 100.89
lradius 53.1654 0 0
lwrist 3.9546 0 0
lhand -29.0261 -8.9816 0
lfingers 7.12502 0 0
lthumb -2.37421 21.0454 0
rclavicle -4.19137e-014 1.4741e-015 0
rhumerus -49.2339 -2.37347 -85.8651
rradius 65.0809 0 0
rwrist 10.5798 0 0
rhand -27.537 -23.8202 0
rfingers 7.12502 0 0
rthumb -0.938509 -773.807 0
451
root 1.57807 15.4685 -8.55421 5.01446 21.4021 -15.0763
lfemur -56.9566 25.4674 -9.38895
ltibia 63.3367 0 0
lfoot -18.4365 -2.10909 0
ltoes 1.65052 0 0
rfemur -5.65037 -9.85998 12.4211
rtibia 33.8747 0 0
rfoot -7.50686 -18.3836 0
rtoes -50.6415 0 0
lowerback 3.84665 1.12027 6.52605
upperback 0.521662 1.807 1.93622
thorax -1.48804 0.873938 -1.75115
lowerneck -7.09012 -1.67564 4.14278
upperneck 0.228648 -2.57301 0.133259
head 1.20805 -1.26862 -0.732497
lclavicle -4.1963e-014 1.11472e-015 0
lhumerus -41.7847 -24.1125 101.127
lradius 53.2379 0 0
lwrist 3.74147 0 0
lhand -28.7766 -9.03283 0
lfingers 7.12502 0 0
lthumb -2.13452 20.9681 0
rclavicle -4.1963e-014 1.11472e-015 0
rhumerus -49.2557 -2.2774 -85.9052
rradius 65.1929 0 0
rwrist 10.7802 0 0
rhand -27.4694 -23.8961 0
rfingers 7.12502 0 0
rthumb -0.873385 -773.879 0
452
root 1.57959 15.4718 -8.49841 5.09697 22.8966 -15.0995
lfemur -57.0118 25.2029 -9.53875
ltibia 63.3325 0 0
lfoot -18.5317 -2.34952 0
ltoes 1.83711 0 0
rfemur -5.66079 -9.50119 12.2291
rtibia 33.7192 0 0
rfoot -7.4227 -18.344 0
rtoes -51.3424 0 0
lowerback 3.81928 1.05236 6.53472
upperback 0.49872 1.7184 1.97876
thorax -1.49847 0.829975 -1.70581
lowerneck -7.12173 -1.82314 4.02999
upperneck 0.25372 -2.76257 0.166231
head 1.22197 -1.36318 -0.712565
lclavicle -4.19436e-014 7.95139e-016 0
lhumerus -41.8188 -24.2908 101.366
lradius 53.3045 0 0
lwrist 3.55181 0 0
lhand -28.4761 -9.05693 0
lfingers 7.12502 0 0
lthumb -1.84572 20.9148 0
rclavicle -4.19436e-014 7.95139e-016 0
rhumerus -49.2721 -2.13284 -85.9644
rradius 65.3201 0 0
rwrist 10.9931 0 0
rhand -27.3797 -23.9533 0
rfingers 7.12502 0 0
rthumb -0.786809 -773.932 0
453
root 1.5887 15.4781 -8.44181 5.22695 24.3836 -15.0265
lfemur -56.9765 24.8471 -9.71101
ltibia 63.2596 0 0
lfoot -18.6243 -2.56652 0
ltoes 2.05486 0 0
rfemur -5.81003 -9.15103 12.0588
rtibia 33.7305 0 0
rfoot -7.28253 -18.2415 0
rtoes -51.8537 0 0
lowerback 3.79401 0.988102 6.51953
upperback 0.47503 1.63308 2.00978
thorax -1.51079 0.787672 -1.65934
lowerneck -7.15499 -1.96985 3.91859
upperneck 0.292381 -2.95113 0.197537
head 1.24121 -1.45709 -0.69361
lclavicle -4.18826e-014 4.80672e-016 0
lhumerus -41.8715 -24.4714 101.613
lradius 53.3672 0 0
lwrist 3.37712 0 0
lhand -28.1069 -9.05088 0
lfingers 7.12502 0 0
lthumb -1.4908 20.8871 0
rclavicle -4.18826e-014 4.80672e-016 0
rhumerus -49.2977 -1.93011 -86.0484
rradius 65.4475 0 0
rwrist 11.2462 0 0
rhand -27.2561 -23.9922 0
rfingers 7.12502 0 0
rthumb -0.667531 -773.966 0
454
root 1.60512 15.4879 -8.38534 5.45735 25.9115 -14.8126
lfemur -56.8566 24.3973 -9.90955
ltibia 63.1173 0 0
lfoot -18.712 -2.77189 0
ltoes 2.31813 0 0
rfemur -6.09225 -8.79441 11.9114
rtibia 33.8973 0 0
rfoot -7.08816 -18.0763 0
rtoes -52.1917 0 0
lowerback 3.76758 0.924309 6.48148
upperback 0.448645 1.54664 2.02961
thorax -1.52521 0.744778 -1.61164
lowerneck -7.19236 -2.1183 3.806
upperneck 0.341866 -3.14176 0.227526
head 1.26496 -1.552 -0.67503
lclavicle -4.18082e-014 1.36671e-016 0
lhumerus -41.9434 -24.6626 101.875
lradius 53.4286 0 0
lwrist 3.2083 0 0
lhand -27.6557 -9.01348 0
lfingers 7.12502 0 0
lthumb -1.05699 20.8849 0
rclavicle -4.18082e-014 1.36671e-016 0
rhumerus -49.3458 -1.6631 -86.1612
rradius 65.5608 0 0
rwrist 11.564 0 0
rhand -27.089 -24.0144 0
rfingers 7.12502 0 0
rthumb -0.506333 -773.982 0
